# xmcd CD database file
#
# Track frame offsets:
#	150
#	12677
#	35416
#	58073
#	78245
#	100217
#	122727
#	133489
#	155716
#	174155
#	187340
#	208664
#	233184
#
# Disc length: 3325 seconds
#
# Revision: 2
# Processed by: cddbd v1.5.2PL0 Copyright (c) Steve Scherf et al.
# Submitted via: CDex 1.70beta2
#
DISCID=bc0cfb0d
DTITLE=ポケットビスケッツ - THANKS
DYEAR=2000
DGENRE=J ポップ
TTITLE0=Overture-Millennium-
TTITLE1=Rapturous Blue
TTITLE2=Yellow Yellow Happy
TTITLE3=Red Angel
TTITLE4=Green Man
TTITLE5=Power
TTITLE6=Interlude-青の住人-
TTITLE7=青の住人
TTITLE8=マーガレット
TTITLE9=まごころ -THANKS Version-
TTITLE10=My Diamond
TTITLE11=Days
TTITLE12=ポケビのうた
EXTD=YEAR: 2000
EXTT0=
EXTT1=
EXTT2=
EXTT3=
EXTT4=
EXTT5=
EXTT6=
EXTT7=
EXTT8=
EXTT9=
EXTT10=
EXTT11=
EXTT12=
PLAYORDER=
